<mxfile host="app.diagrams.net" modified="2023-04-17T13:36:55.063Z" agent="Mozilla/5.0 (Windows NT 10.0; Win64; x64) AppleWebKit/537.36 (KHTML, like Gecko) Chrome/110.0.0.0 Safari/537.36" version="21.1.8" etag="RJ80GFjSR0895pm98TO1" type="github">
  <diagram name="第 1 页" id="i18JGJ34kbMfS3A-ol3H">
    <mxGraphModel>
      <root>
        <mxCell id="0" />
        <mxCell id="1" parent="0" />
      </root>
    </mxGraphModel>
  </diagram>
</mxfile>
